<svg width="512" height="512" viewBox="0 0 512 512" fill="none" xmlns="http://www.w3.org/2000/svg">
<g clip-path="url(#clip0_3_55)">
<rect width="512" height="512" fill="white"/>
<path fill-rule="evenodd" clip-rule="evenodd" d="M128 355V525.001L0 515.001V62.9997C0 -89 469.774 -25.3969 466.5 -13C477.002 -9.18776 483.495 -8.22364 487.509 -4.5503C494.241 1.60999 494 15.3897 494 63.0001C494 102.765 460.869 135 420 135C388.112 135 347.959 122.861 307.722 110.696C218.07 83.5917 128 56.3608 128 163V249V259H202C208.627 259 214 264.373 214 271V343C214 349.627 208.627 355 202 355H128Z" fill="#14DDB9"/>
<path fill-rule="evenodd" clip-rule="evenodd" d="M361.561 560.784V756.785L233.562 746.785V260C233.562 108 604.835 247.603 601.562 260C610.888 263.385 627.892 264.951 646.454 266.66C683.847 270.102 727.561 274.126 727.561 294.784C727.561 334.549 694.431 366.784 653.561 366.784C620.83 366.784 579.39 348.574 538.09 330.426C449.505 291.499 361.561 252.853 361.561 394.784V416H530C534.418 416 538 419.582 538 424V509C538 513.418 534.418 517 530 517H361.561V560.784Z" fill="#14DDB9"/>
</g>
<defs>
<clipPath id="clip0_3_55">
<rect width="512" height="512" fill="white"/>
</clipPath>
</defs>
</svg>
