<?xml version="1.0" standalone="no"?>
<!DOCTYPE svg PUBLIC "-//W3C//DTD SVG 20010904//EN"
 "http://www.w3.org/TR/2001/REC-SVG-20010904/DTD/svg10.dtd">
<svg version="1.0" xmlns="http://www.w3.org/2000/svg"
 width="512.000000pt" height="512.000000pt" viewBox="0 0 512.000000 512.000000"
 preserveAspectRatio="xMidYMid meet">
<metadata>
Created by potrace 1.14, written by Peter Selinger 2001-2017
</metadata>
<g transform="translate(0.000000,512.000000) scale(0.100000,-0.100000)"
fill="#000000" stroke="none">
<path d="M331 5069 c-147 -103 -250 -232 -299 -374 l-27 -80 -3 -2307 -2
-2308 640 0 640 0 0 785 0 784 395 3 395 3 32 33 33 32 0 410 0 410 -33 32
-32 33 -395 3 -395 3 0 537 c0 423 3 558 15 635 28 183 86 308 188 403 118
110 236 147 467 147 262 1 476 -45 1120 -238 636 -191 854 -238 1105 -239 173
-1 231 11 360 74 183 90 325 260 381 455 31 109 30 716 -2 798 -6 16 -162 17
-2259 17 l-2252 0 -72 -51z"/>
<path d="M3125 3214 c-219 -31 -345 -67 -469 -132 -94 -49 -203 -156 -246
-241 -70 -140 -64 -14 -67 -1499 l-3 -1342 1390 0 1390 0 0 480 0 480 -755 0
-755 0 0 73 c0 175 21 461 40 561 64 330 204 510 440 567 30 7 105 13 165 12
200 -2 405 -57 813 -222 l52 -21 0 485 0 484 -97 30 c-377 116 -843 219 -1213
267 -119 15 -612 28 -685 18z"/>
</g>
</svg>
